<svg id="Layer_1" data-name="Layer 1" xmlns="http://www.w3.org/2000/svg" viewBox="0 0 137.36 62.44"><defs><style>.cls-1{isolation:isolate;}.cls-2{fill:#35b6b0;}</style></defs><title>evibe-logo</title><g id="eVibe-2"><g class="cls-1"><path class="cls-2" d="M30.44,45.66a50.25,50.25,0,0,1-4.51,5.67,41.7,41.7,0,0,1-5.35,4.92,29.45,29.45,0,0,1-5.78,3.49,14,14,0,0,1-5.74,1.32,8.41,8.41,0,0,1-3.16-.69,9.19,9.19,0,0,1-3.08-2.16A10.69,10.69,0,0,1,.59,54.42a13,13,0,0,1-.5-5.64A17.42,17.42,0,0,1,1.79,43a25.9,25.9,0,0,1,3.52-5.54A19.77,19.77,0,0,1,10,33.31a9.77,9.77,0,0,1,5.28-1.66A4.68,4.68,0,0,1,19,32.91,4,4,0,0,1,20,36a9.54,9.54,0,0,1-1.16,3.78,15.49,15.49,0,0,1-2.29,3.12,23.19,23.19,0,0,1-2.83,2.53c-1,.75-1.93,1.44-2.82,2.06L8.06,49.41C7.18,50,6.4,50.55,5.74,51a7.1,7.1,0,0,0,.6,2.79,5.38,5.38,0,0,0,1.32,1.82,4.75,4.75,0,0,0,1.83,1,7.44,7.44,0,0,0,2.09.3,9.43,9.43,0,0,0,4.72-1.43,32.49,32.49,0,0,0,4.81-3.45,53.22,53.22,0,0,0,4.38-4.22q2-2.19,3.36-3.79a1.83,1.83,0,0,1,1-.63,1,1,0,0,1,.8.14.94.94,0,0,1,.3.79A2.52,2.52,0,0,1,30.44,45.66Zm-17-10.23a3.43,3.43,0,0,0-1.89.8,9.8,9.8,0,0,0-2.16,2.29,19.54,19.54,0,0,0-2,3.65A21.41,21.41,0,0,0,6,47.12c.54-.4,1.11-.81,1.73-1.23S9,45,9.59,44.53a18.6,18.6,0,0,0,4-3.85,6.68,6.68,0,0,0,1.27-2.86A2.72,2.72,0,0,0,14.57,36,1.29,1.29,0,0,0,13.44,35.43Z" transform="translate(0 -9.91)"/><path class="cls-2" d="M37.08,72.35a3.84,3.84,0,0,1-2.92-1.72A15.81,15.81,0,0,1,32,66.31a41.31,41.31,0,0,1-1.56-6q-.63-3.39-1-6.88c-.27-2.32-.44-4.58-.53-6.77s-.13-4.13-.13-5.81a68.88,68.88,0,0,1,.63-8.2q.55-4.21,1.26-7.94c.46-2.48.93-4.68,1.39-6.6s.81-3.29,1-4.09a5.06,5.06,0,0,1,1.26-2.62,5.15,5.15,0,0,1,3-.83h1.6l1.32.13a3.72,3.72,0,0,1,1.2.33,59.67,59.67,0,0,0-3.85,9.7,77,77,0,0,0-2.26,9.83,83.31,83.31,0,0,0-1,9.66q-.2,4.74-.06,9.2.14,3.51.4,6.54a58.79,58.79,0,0,0,.86,6.14c.4,2,.86,3.21,1.39,3.52s1.09.1,1.66-.63a13,13,0,0,0,1.7-3.19,41,41,0,0,0,1.42-4.22c.27-.93.67-2.26,1.2-4s1.13-3.69,1.79-5.81,1.36-4.34,2.09-6.64,1.41-4.44,2-6.41S49.93,31,50.4,29.52s.78-2.43,1-2.92c.27-.71.63-1.69,1.1-3s1-2.59,1.52-4,1.13-2.79,1.73-4.18,1.16-2.63,1.69-3.69A3.13,3.13,0,0,1,59.2,10a2.43,2.43,0,0,1,1.95.3A6,6,0,0,1,63,12a16.68,16.68,0,0,1,1.43,2.32,4.22,4.22,0,0,0-1.76,1.63A22,22,0,0,0,61,18.7c-.58,1.15-1.13,2.39-1.66,3.72-.36,1-.82,2.25-1.4,3.85s-1.18,3.34-1.82,5.24-1.31,3.88-2,5.91-1.34,4-2,5.78-1.19,3.44-1.7,4.88-.92,2.51-1.23,3.22c-.44,1.06-.95,2.29-1.52,3.69s-1.19,2.82-1.83,4.28-1.29,2.91-2,4.35-1.33,2.73-2,3.88a24.84,24.84,0,0,1-2.36,3.69A3.09,3.09,0,0,1,37.08,72.35Z" transform="translate(0 -9.91)"/><path class="cls-2" d="M65.37,34.5a2.53,2.53,0,0,1,1.26-.66,16.93,16.93,0,0,1,1.93-.43,12.75,12.75,0,0,1,1.83-.2,3.2,3.2,0,0,1,1,0A5.47,5.47,0,0,1,71,34.63c-.27.89-.6,1.93-1,3.12s-.82,2.43-1.26,3.69-.78,2.29-1,3.09-.49,1.69-.79,2.69-.59,2-.83,2.92a18.19,18.19,0,0,0-.5,2.69,3.45,3.45,0,0,0,.2,1.92,2.52,2.52,0,0,0,.73,1.1,1.39,1.39,0,0,0,.86.3,6.28,6.28,0,0,0,3.35-1.46A37.89,37.89,0,0,0,74.9,51.2c1.4-1.35,2.69-2.72,3.89-4.12a41.1,41.1,0,0,0,2.65-3.35,2.56,2.56,0,0,1,1.1-.86,1,1,0,0,1,.93.06,1.13,1.13,0,0,1,.4.87,2.59,2.59,0,0,1-.44,1.39,35,35,0,0,1-3.12,4.42,65.38,65.38,0,0,1-4.38,4.91,41.16,41.16,0,0,1-4.55,4,7.37,7.37,0,0,1-3.62,1.73,5.2,5.2,0,0,1-2.22-.37,6.95,6.95,0,0,1-3.49-3,4.69,4.69,0,0,1-.66-2.16,24.14,24.14,0,0,1,0-4.54,54.14,54.14,0,0,1,.73-5.91,46.51,46.51,0,0,1,1.36-5.75A12.36,12.36,0,0,1,65.37,34.5Zm9.17-14.14a4,4,0,0,1-.77,1.42,4.62,4.62,0,0,1-1.26,1.13,4,4,0,0,1-1.43.57,1.34,1.34,0,0,1-1.19-.27,3.16,3.16,0,0,1-1.46-2.29A3.94,3.94,0,0,1,69,18.6a6.89,6.89,0,0,1,1.66-1.86,4.35,4.35,0,0,1,1.73-.9,1.39,1.39,0,0,1,1.23.3,2.69,2.69,0,0,1,.76,1.13,4.7,4.7,0,0,1,.3,1.56A4.86,4.86,0,0,1,74.54,20.36Z" transform="translate(0 -9.91)"/><path class="cls-2" d="M93.79,21.42q-1,4-2.22,7.6c-.82,2.42-1.66,4.67-2.52,6.78s-1.73,4-2.59,5.74-1.63,3.23-2.29,4.52a21.82,21.82,0,0,0,0,7.7c.44,2,1.3,2.92,2.58,2.92a4.56,4.56,0,0,0,3.13-1.46,15.46,15.46,0,0,0,2.72-3.59,26.39,26.39,0,0,0,2-4.55,19.35,19.35,0,0,0,1-4.34,4.74,4.74,0,0,1-2.12-1.17,2.91,2.91,0,0,1-.86-2.22,3.15,3.15,0,0,1,.53-1.76,6,6,0,0,1,1.26-1.43,5.67,5.67,0,0,1,1.59-.93,4.53,4.53,0,0,1,1.6-.33,2.28,2.28,0,0,1,1.92,1.43A9.74,9.74,0,0,1,100.63,40a25.88,25.88,0,0,0,5.58-.8,35.29,35.29,0,0,0,5.51-1.86,1.8,1.8,0,0,1,1.2-.2.92.92,0,0,1,.63.53,1.18,1.18,0,0,1,0,.9,1.43,1.43,0,0,1-.8.76,30.72,30.72,0,0,1-3.15,1.56A25.64,25.64,0,0,1,106.34,42a28.59,28.59,0,0,1-3,.74,15.58,15.58,0,0,1-2.66.26A18.43,18.43,0,0,1,99,48.75a29.62,29.62,0,0,1-3.38,5.71,20.42,20.42,0,0,1-4.42,4.35,8.21,8.21,0,0,1-4.75,1.72,11.33,11.33,0,0,1-1.92-.2,4.17,4.17,0,0,1-2.33-1.39,9.73,9.73,0,0,1-1.92-3.82,24.65,24.65,0,0,1-.67-7.47,44.79,44.79,0,0,1,.73-6.91c.44-2.43,1-4.87,1.6-7.3s1.31-4.79,2.09-7.07,1.51-4.34,2.22-6.18,1.36-3.37,2-4.61a13.16,13.16,0,0,1,1.36-2.4,4,4,0,0,1,1.4-1.09,7.77,7.77,0,0,1,1.56-.53,4.43,4.43,0,0,1,1.43-.1,2.83,2.83,0,0,1,.93.2c.26.17.34,1.15.23,2.92A35.62,35.62,0,0,1,93.79,21.42Z" transform="translate(0 -9.91)"/><path class="cls-2" d="M136.89,45.66a50.25,50.25,0,0,1-4.51,5.67A41.7,41.7,0,0,1,127,56.25a29.45,29.45,0,0,1-5.78,3.49,14,14,0,0,1-5.74,1.32,8.41,8.41,0,0,1-3.16-.69,9.19,9.19,0,0,1-3.08-2.16A10.54,10.54,0,0,1,107,54.42a13,13,0,0,1-.5-5.64,17.42,17.42,0,0,1,1.7-5.75,25.9,25.9,0,0,1,3.52-5.54,19.77,19.77,0,0,1,4.71-4.18,9.77,9.77,0,0,1,5.28-1.66,4.68,4.68,0,0,1,3.65,1.26,4,4,0,0,1,1,3.12,9.54,9.54,0,0,1-1.16,3.78A15.88,15.88,0,0,1,123,42.93a23.19,23.19,0,0,1-2.83,2.53c-1,.75-1.93,1.44-2.82,2.06l-2.79,1.89c-.88.6-1.66,1.14-2.32,1.63a7.1,7.1,0,0,0,.6,2.79,5.38,5.38,0,0,0,1.32,1.82,4.75,4.75,0,0,0,1.83,1A7.44,7.44,0,0,0,118,57a9.43,9.43,0,0,0,4.72-1.43,32.49,32.49,0,0,0,4.81-3.45,53.22,53.22,0,0,0,4.38-4.22q2-2.19,3.36-3.79a1.83,1.83,0,0,1,1-.63,1,1,0,0,1,.8.14.94.94,0,0,1,.3.79A2.52,2.52,0,0,1,136.89,45.66Zm-17-10.23a3.43,3.43,0,0,0-1.89.8,9.8,9.8,0,0,0-2.16,2.29,19.54,19.54,0,0,0-2,3.65,21.41,21.41,0,0,0-1.4,4.95c.54-.4,1.11-.81,1.73-1.23s1.24-.87,1.86-1.36a18.6,18.6,0,0,0,4-3.85,6.68,6.68,0,0,0,1.27-2.86A2.72,2.72,0,0,0,121,36,1.3,1.3,0,0,0,119.89,35.43Z" transform="translate(0 -9.91)"/></g></g></svg>