<svg id="Layer_1" data-name="Layer 1" xmlns="http://www.w3.org/2000/svg" viewBox="0 0 137.4 62.44"><defs><style>.cls-1{fill:#fff;}</style></defs><title>evibe-logo-white</title><g id="eVibe-2"><path class="cls-1" d="M30.44,35.75a49.2,49.2,0,0,1-4.51,5.67,42.24,42.24,0,0,1-5.35,4.92,29.83,29.83,0,0,1-5.78,3.49,14.05,14.05,0,0,1-5.74,1.32,8.39,8.39,0,0,1-3.16-.69A9.34,9.34,0,0,1,2.82,48.3,10.7,10.7,0,0,1,.59,44.51a13,13,0,0,1-.5-5.64,17.44,17.44,0,0,1,1.7-5.78,25.86,25.86,0,0,1,3.52-5.54A20,20,0,0,1,10,23.4a9.75,9.75,0,0,1,5.28-1.66A4.66,4.66,0,0,1,19,23a4,4,0,0,1,1,3.09,9.52,9.52,0,0,1-1.16,3.78A15.56,15.56,0,0,1,16.55,33a22.63,22.63,0,0,1-2.83,2.53c-1,.75-1.93,1.44-2.82,2.06L8.06,39.5c-.88.59-1.66,1.14-2.32,1.59a7.06,7.06,0,0,0,.6,2.79A5.53,5.53,0,0,0,7.66,45.7a4.75,4.75,0,0,0,1.83,1,7.39,7.39,0,0,0,2.09.3,9.42,9.42,0,0,0,4.72-1.43,33.23,33.23,0,0,0,4.81-3.45,52.87,52.87,0,0,0,4.38-4.22q2-2.19,3.36-3.79a1.83,1.83,0,0,1,1-.63,1,1,0,0,1,.8.14.93.93,0,0,1,.3.79A2.51,2.51,0,0,1,30.44,35.75Zm-17-10.23a3.45,3.45,0,0,0-1.89.8,9.79,9.79,0,0,0-2.16,2.29,19.61,19.61,0,0,0-2,3.65,21.32,21.32,0,0,0-1.39,5c.54-.4,1.11-.81,1.73-1.23S9,35.09,9.59,34.62a18.5,18.5,0,0,0,4-3.85,6.72,6.72,0,0,0,1.27-2.86,2.68,2.68,0,0,0-.29-1.82A1.3,1.3,0,0,0,13.44,25.52Z" transform="translate(0.02 0)"/><path class="cls-1" d="M37.08,62.44a3.82,3.82,0,0,1-2.92-1.72A15.62,15.62,0,0,1,32,56.4a41.32,41.32,0,0,1-1.56-6q-.63-3.39-1-6.88c-.27-2.32-.44-4.58-.53-6.77s-.13-4.13-.13-5.81a70.39,70.39,0,0,1,.63-8.2c.37-2.81.79-5.45,1.26-7.94s.93-4.68,1.39-6.6.81-3.29,1-4.09a5,5,0,0,1,1.26-2.62,5.14,5.14,0,0,1,3-.83h1.6l1.32.13a3.57,3.57,0,0,1,1.2.33,60.09,60.09,0,0,0-3.85,9.7,76.9,76.9,0,0,0-2.26,9.83,84.55,84.55,0,0,0-1,9.66q-.19,4.74-.06,9.2c.09,2.34.23,4.52.4,6.54a60.44,60.44,0,0,0,.86,6.14c.4,2,.86,3.21,1.39,3.52s1.09.1,1.66-.63a13.21,13.21,0,0,0,1.7-3.19,41.82,41.82,0,0,0,1.42-4.22c.27-.93.67-2.26,1.2-4S44,40,44.69,37.86s1.36-4.34,2.09-6.64,1.41-4.44,2-6.41,1.15-3.72,1.62-5.2.78-2.43,1-2.92c.27-.71.63-1.69,1.1-3s1-2.59,1.52-4,1.13-2.79,1.73-4.18,1.16-2.63,1.69-3.69A3.12,3.12,0,0,1,59.2.09a2.44,2.44,0,0,1,1.95.3A6,6,0,0,1,63,2.09a16.25,16.25,0,0,1,1.43,2.32A4.26,4.26,0,0,0,62.67,6,21.89,21.89,0,0,0,61,8.79c-.58,1.15-1.13,2.39-1.66,3.72l-1.4,3.85c-.58,1.6-1.18,3.34-1.82,5.24l-2,5.91c-.69,2-1.34,4-2,5.78s-1.19,3.44-1.7,4.88-.92,2.51-1.23,3.22c-.44,1.06-.95,2.29-1.52,3.69s-1.19,2.82-1.83,4.28-1.29,2.91-2,4.35-1.33,2.73-2,3.88a25.39,25.39,0,0,1-2.36,3.69A3.08,3.08,0,0,1,37.08,62.44Z" transform="translate(0.02 0)"/><path class="cls-1" d="M65.37,24.59a2.49,2.49,0,0,1,1.26-.66,18,18,0,0,1,1.93-.43,12.49,12.49,0,0,1,1.83-.2,3.35,3.35,0,0,1,1,0A5.75,5.75,0,0,1,71,24.72c-.27.89-.6,1.93-1,3.12s-.82,2.43-1.26,3.69-.78,2.29-1,3.09-.49,1.69-.79,2.69-.59,2-.83,2.92a18.75,18.75,0,0,0-.5,2.69,3.41,3.41,0,0,0,.2,1.92,2.48,2.48,0,0,0,.73,1.1,1.4,1.4,0,0,0,.86.3,6.23,6.23,0,0,0,3.35-1.46,38.22,38.22,0,0,0,4.14-3.49c1.4-1.35,2.69-2.72,3.89-4.12a40.59,40.59,0,0,0,2.65-3.35,2.59,2.59,0,0,1,1.1-.86,1,1,0,0,1,.93.06,1.14,1.14,0,0,1,.4.87,2.54,2.54,0,0,1-.44,1.39,34.88,34.88,0,0,1-3.12,4.42q-2.07,2.56-4.38,4.91a42.14,42.14,0,0,1-4.55,4,7.37,7.37,0,0,1-3.62,1.73A5.25,5.25,0,0,1,65.54,50a6.92,6.92,0,0,1-3.49-3,4.74,4.74,0,0,1-.66-2.16,24.59,24.59,0,0,1,0-4.54,53.58,53.58,0,0,1,.73-5.91,47.53,47.53,0,0,1,1.36-5.75A12.25,12.25,0,0,1,65.37,24.59Zm9.17-14.14a4.09,4.09,0,0,1-.77,1.42A4.69,4.69,0,0,1,72.51,13a4.13,4.13,0,0,1-1.43.57,1.32,1.32,0,0,1-1.19-.27A3.16,3.16,0,0,1,68.43,11,4,4,0,0,1,69,8.69a6.87,6.87,0,0,1,1.66-1.86,4.35,4.35,0,0,1,1.73-.9,1.41,1.41,0,0,1,1.23.3,2.64,2.64,0,0,1,.76,1.13,4.65,4.65,0,0,1,.3,1.56A4.94,4.94,0,0,1,74.54,10.45Z" transform="translate(0.02 0)"/><path class="cls-1" d="M93.79,11.51q-1,4-2.22,7.6c-.82,2.42-1.66,4.67-2.52,6.78s-1.73,4-2.59,5.74-1.63,3.23-2.29,4.52a21.65,21.65,0,0,0,0,7.7c.44,2,1.3,2.92,2.58,2.92a4.57,4.57,0,0,0,3.13-1.46,15.59,15.59,0,0,0,2.72-3.59,26,26,0,0,0,2-4.55,19.54,19.54,0,0,0,1-4.34,4.67,4.67,0,0,1-2.12-1.17,2.91,2.91,0,0,1-.86-2.22,3.14,3.14,0,0,1,.53-1.76,6.14,6.14,0,0,1,1.26-1.43A5.77,5.77,0,0,1,96,25.32,4.4,4.4,0,0,1,97.6,25a2.29,2.29,0,0,1,1.92,1.43,9.71,9.71,0,0,1,1.11,3.67,25.73,25.73,0,0,0,5.58-.8,35.71,35.71,0,0,0,5.51-1.86,1.85,1.85,0,0,1,1.2-.2.91.91,0,0,1,.63.53,1.17,1.17,0,0,1,0,.9,1.42,1.42,0,0,1-.8.76A30.72,30.72,0,0,1,109.6,31a26.62,26.62,0,0,1-3.26,1.11,28.54,28.54,0,0,1-3,.74,15.87,15.87,0,0,1-2.66.26A18.3,18.3,0,0,1,99,38.84a29.6,29.6,0,0,1-3.38,5.71A20.26,20.26,0,0,1,91.2,48.9a8.2,8.2,0,0,1-4.75,1.72,11.27,11.27,0,0,1-1.92-.2A4.17,4.17,0,0,1,82.2,49a9.71,9.71,0,0,1-1.92-3.82,24.71,24.71,0,0,1-.67-7.47,44.5,44.5,0,0,1,.73-6.91c.44-2.43,1-4.87,1.6-7.3s1.31-4.79,2.09-7.07,1.51-4.34,2.22-6.18a47.89,47.89,0,0,1,2-4.61,12.9,12.9,0,0,1,1.36-2.4A4,4,0,0,1,91,2.18a7.75,7.75,0,0,1,1.56-.53A4.58,4.58,0,0,1,94,1.55a2.72,2.72,0,0,1,.93.2c.26.17.34,1.15.23,2.92A35.43,35.43,0,0,1,93.79,11.51Z" transform="translate(0.02 0)"/><path class="cls-1" d="M136.89,35.75a49.2,49.2,0,0,1-4.51,5.67A42.49,42.49,0,0,1,127,46.34a29.83,29.83,0,0,1-5.78,3.49,14.05,14.05,0,0,1-5.74,1.32,8.39,8.39,0,0,1-3.16-.69,9.34,9.34,0,0,1-3.08-2.16A10.41,10.41,0,0,1,107,44.51a13,13,0,0,1-.5-5.64,17.51,17.51,0,0,1,1.7-5.75,25.86,25.86,0,0,1,3.52-5.54,19.75,19.75,0,0,1,4.71-4.18,9.75,9.75,0,0,1,5.28-1.66A4.69,4.69,0,0,1,125.36,23a4,4,0,0,1,1,3.12,9.52,9.52,0,0,1-1.16,3.78A16.13,16.13,0,0,1,123,33a22.63,22.63,0,0,1-2.83,2.53c-1,.75-1.93,1.44-2.82,2.06l-2.79,1.89c-.88.6-1.66,1.14-2.32,1.63a7.06,7.06,0,0,0,.6,2.79,5.53,5.53,0,0,0,1.32,1.82,4.75,4.75,0,0,0,1.83,1,7.25,7.25,0,0,0,2,.35,9.42,9.42,0,0,0,4.72-1.43,33.23,33.23,0,0,0,4.81-3.45A52.87,52.87,0,0,0,131.91,38q2-2.19,3.36-3.79a1.83,1.83,0,0,1,1-.63,1,1,0,0,1,.8.14.93.93,0,0,1,.3.79A2.5,2.5,0,0,1,136.89,35.75Zm-17-10.23a3.45,3.45,0,0,0-1.89.8,9.79,9.79,0,0,0-2.16,2.29,19.61,19.61,0,0,0-2,3.65,21.84,21.84,0,0,0-1.4,5c.54-.4,1.11-.81,1.73-1.23s1.24-.87,1.86-1.36a18.5,18.5,0,0,0,4-3.85,6.72,6.72,0,0,0,1.27-2.86,2.68,2.68,0,0,0-.3-1.82A1.3,1.3,0,0,0,119.89,25.52Z" transform="translate(0.02 0)"/></g></svg>