<svg id="Layer_1" data-name="Layer 1" xmlns="http://www.w3.org/2000/svg" viewBox="0 0 40.35 33.05"><defs><style>.cls-1{fill:#35b6b0;}</style></defs><title>menu-burger</title><path id="air" class="cls-1" d="M151.28,173.52c3.91-3.35,7-6,15.37-1.26,4,2.24,7.26,3.08,9.92,3.08,4.75,0,7.82-2.66,10.48-4.89a2.28,2.28,0,0,0-2.84-3.57l-.09.07c-3.92,3.36-7,6-15.37,1.26-10.9-6.29-16.21-1.82-20.27,1.82a2.25,2.25,0,0,0-.32,3.16l0,.05a2.09,2.09,0,0,0,2.92.41l.16-.13Zm33,4.89c-3.92,3.36-7,6-15.37,1.26-11-6.29-16.21-1.81-20.4,1.82a2.24,2.24,0,0,0-.33,3.16s0,0,.05,0a2.24,2.24,0,0,0,3.16.33s0,0,0-.05c3.91-3.35,7-6,15.37-1.26,4.05,2.24,7.27,3.08,9.92,3.08,4.75,0,7.83-2.66,10.48-4.89a2.28,2.28,0,0,0-2.93-3.5Zm0,11.32c-3.92,3.36-7,6-15.37,1.26-11-6.15-16.35-1.68-20.41,1.81a2.26,2.26,0,0,0-.32,3.17s0,0,0,0a2.24,2.24,0,0,0,3.16.33l.06-.05c3.91-3.35,7-6,15.37-1.25,4.05,2.23,7.27,3.07,9.92,3.07,4.75,0,7.83-2.66,10.48-4.89a2.28,2.28,0,1,0-2.93-3.49Z" transform="translate(-147.65 -165.06)"/></svg>